<?xml version="1.0" encoding="UTF-8"?>
<svg width="324px" height="43px" viewBox="0 0 324 43" version="1.1" xmlns="http://www.w3.org/2000/svg" xmlns:xlink="http://www.w3.org/1999/xlink">
    <title>Group</title>
    <g id="Page-1" stroke="none" stroke-width="1" fill="none" fill-rule="evenodd">
        <g id="Mobile" transform="translate(-28.000000, -36.000000)" fill="#D2146C">
            <g id="Group" transform="translate(28.000000, 36.000000)">
                <text id="DEVCROSSING" font-family="Montserrat-SemiBold, Montserrat" font-size="35" font-weight="500" letter-spacing="0.925">
                    <tspan x="46" y="34">DEVCROSSING</tspan>
                </text>
                <g id="ネコの足跡の無料アイコン素材-4" transform="translate(0.000000, 3.000000)" fill-rule="nonzero">
                    <path d="M18,0 C8.05879688,0 0,8.05900781 0,18 C0,27.9409922 8.05879688,36 18,36 C27.9409922,36 36,27.9409922 36,18 C36,8.05900781 27.9409922,0 18,0 Z M21.6687489,8.01093315 C21.7731667,8.01999633 21.8806007,8.03355486 21.9930616,8.05458145 C22.0999211,8.07466547 22.1997428,8.09989738 22.2968356,8.12759448 C22.3159381,8.13295988 22.3355434,8.13810777 22.354646,8.1437632 C23.9561737,8.63542292 24.1704672,10.1858078 23.9028158,11.9712554 C23.8870885,12.077186 23.8657597,12.1802163 23.8422046,12.2822315 C23.8368904,12.3052157 23.8318634,12.3281275 23.8262619,12.3505317 C23.4624513,13.8114447 22.3450947,14.8387025 21.402821,14.9819734 C21.3871655,14.9845111 21.371151,14.9867587 21.3554237,14.9887889 C21.2168223,15.0055376 21.0821708,15.0040875 20.9551315,14.9805958 C19.882156,14.7797556 18.7589107,12.9761815 19.0453056,11.0633417 C19.3134596,9.2744863 19.9696257,7.88441107 21.6342781,8.00759789 C21.6454811,8.00839545 21.6572586,8.01006308 21.6687489,8.01093315 Z M27.8182638,13.0900092 C27.8888322,13.1142817 27.958099,13.1428786 28.0252691,13.1771949 C29.1276101,13.7392289 29.3244928,15.4685053 28.4644413,17.0392431 C27.604462,18.6104692 25.7931841,19.3161155 24.910863,18.866586 C24.0291204,18.4167077 23.6116393,16.5752059 24.4716908,15.0042588 C25.2772254,13.5327034 26.7241655,12.7221552 27.8100935,13.0869402 C27.8128411,13.088126 27.8156609,13.0892419 27.8182638,13.0900092 Z M7.97480615,13.1772348 C8.04205009,13.1428494 8.11124628,13.1140438 8.18181628,13.0900507 C8.18463618,13.0890045 8.18687765,13.0881676 8.18976986,13.0870516 C9.27579575,12.7219944 10.7226975,13.5325273 11.5282511,15.004334 C12.3882505,16.5752515 11.9711211,18.4167884 11.0890685,18.8665885 C10.207016,19.3161096 8.39540619,18.6104766 7.53569594,17.03928 C6.67555187,15.468502 6.87222234,13.7392582 7.97480615,13.1772348 Z M13.7031112,8.12766698 C13.8002033,8.09996989 13.9000243,8.07473798 14.006883,8.05465396 C14.1193432,8.03362736 14.2270637,8.02006884 14.3314808,8.01100565 C14.342971,8.01013559 14.3544612,8.00846796 14.3659514,8.00759789 C16.0305922,7.88441107 16.6864664,9.2744863 16.9546187,11.0633417 C17.2412988,12.9761815 16.1178458,14.7798281 15.044806,14.9805958 C14.9176958,15.0040875 14.7830452,15.0055376 14.6448038,14.9887889 C14.6288612,14.9868312 14.6127749,14.9845836 14.5971196,14.9819734 C13.6547806,14.8387025 12.5375035,13.8111547 12.1736955,12.3502416 C12.168094,12.3278374 12.1630671,12.3055057 12.1580401,12.2828115 C12.1344852,12.1808688 12.1131566,12.077476 12.0971421,11.9712554 C11.8295644,10.1858078 12.0438564,8.63542292 13.6455885,8.1437632 C13.6644754,8.13818028 13.6840806,8.13303239 13.7031112,8.12766698 Z M13.3333967,28 C10.9400898,28 9,26.3227301 9,24.2537217 C9,22.5576995 10.3038427,21.1256526 12.0926727,20.6643999 C12.703827,20.506894 13.1829804,20.0564256 13.4199213,19.4835519 C14.0192672,18.035981 15.6194441,17 17.5001406,17 C19.3809073,17 20.981014,18.035981 21.580149,19.4835519 C21.8173008,20.0564256 22.296173,20.506894 22.9073273,20.6643999 C24.6961573,21.1256526 26,22.5576995 26,24.2537217 C26,26.3227301 24.0599102,28 21.6666033,28 C20.5395349,28 19.5131893,27.6278381 18.7427624,27.0176658 C18.0197799,26.4455476 16.9803607,26.4455476 16.2571673,27.0176658 C15.4868107,27.6277695 14.4605353,28 13.3333967,28 Z" id="Shape"></path>
                </g>
            </g>
        </g>
    </g>
</svg>